<svg xmlns="http://www.w3.org/2000/svg" width="21" height="15" viewBox="0 0 21 15">
  <g id="Group_2619" data-name="Group 2619" transform="translate(-353 -78)">
    <path id="Path_703" data-name="Path 703" d="M353,79.5a1.5,1.5,0,0,1,1.5-1.5h18a1.5,1.5,0,1,1,0,3h-18a1.5,1.5,0,0,1-1.5-1.5Z" fill="#898989"/>
    <path id="Path_704" data-name="Path 704" d="M353,85.5a1.5,1.5,0,0,1,1.5-1.5h18a1.5,1.5,0,1,1,0,3h-18a1.5,1.5,0,0,1-1.5-1.5Z" fill="#898989"/>
    <path id="Path_705" data-name="Path 705" d="M363,91.5a1.5,1.5,0,0,1,1.5-1.5h8a1.5,1.5,0,1,1,0,3h-8a1.5,1.5,0,0,1-1.5-1.5Z" fill="#898989"/>
  </g>
</svg>
