<svg xmlns="http://www.w3.org/2000/svg" xmlns:xlink="http://www.w3.org/1999/xlink" width="96.566" height="10.999" viewBox="0 0 96.566 10.999">
  <defs>
    <clipPath id="clip-path">
      <rect width="96.566" height="10.999" fill="none"/>
    </clipPath>
  </defs>
  <g id="Repeat_Grid_3" data-name="Repeat Grid 3" clip-path="url(#clip-path)">
    <g transform="translate(-36 -476)">
      <path id="Union_2" data-name="Union 2" d="M-541.217-7280.329l-3.573,1.6.413-3.893L-547-7285.53l3.831-.809,1.952-3.392,1.952,3.392,3.831.809-2.623,2.905.415,3.893Z" transform="translate(583 7765.73)"/>
    </g>
    <g transform="translate(-16 -476)">
      <path id="Union_2-2" data-name="Union 2" d="M-541.217-7280.329l-3.573,1.6.413-3.893L-547-7285.53l3.831-.809,1.952-3.392,1.952,3.392,3.831.809-2.623,2.905.415,3.893Z" transform="translate(583 7765.73)"/>
    </g>
    <g transform="translate(4 -476)">
      <path id="Union_2-3" data-name="Union 2" d="M-541.217-7280.329l-3.573,1.6.413-3.893L-547-7285.53l3.831-.809,1.952-3.392,1.952,3.392,3.831.809-2.623,2.905.415,3.893Z" transform="translate(583 7765.73)"/>
    </g>
    <g transform="translate(24 -476)">
      <path id="Union_2-4" data-name="Union 2" d="M-541.217-7280.329l-3.573,1.6.413-3.893L-547-7285.53l3.831-.809,1.952-3.392,1.952,3.392,3.831.809-2.623,2.905.415,3.893Z" transform="translate(583 7765.73)"/>
    </g>
    <g transform="translate(44 -476)">
      <path id="Union_2-5" data-name="Union 2" d="M-541.217-7280.329l-3.573,1.6.413-3.893L-547-7285.53l3.831-.809,1.952-3.392,1.952,3.392,3.831.809-2.623,2.905.415,3.893Z" transform="translate(583 7765.73)"/>
    </g>
  </g>
</svg>
